<mxfile host="app.diagrams.net" modified="2021-08-10T14:29:03.003Z" agent="5.0 (Windows NT 10.0; Win64; x64) AppleWebKit/537.36 (KHTML, like Gecko) Chrome/92.0.4515.131 Safari/537.36" etag="5ft3R1VVDyuYVAJaoL-x" version="14.9.5" type="github">
  <diagram id="mkwgtZ3HvoOtTJvgpyZD" name="Page-1">
    <mxGraphModel dx="1422" dy="762" grid="1" gridSize="10" guides="1" tooltips="1" connect="1" arrows="1" fold="1" page="1" pageScale="1" pageWidth="827" pageHeight="1169" math="0" shadow="0">
      <root>
        <mxCell id="0" />
        <mxCell id="1" parent="0" />
        <mxCell id="zCscpATu42jzyudzo2XU-1" value="class Vehicle():&lt;br&gt;____________________________________________&lt;br&gt;&lt;div style=&quot;text-align: left&quot;&gt;&lt;br&gt;&lt;/div&gt;&lt;div style=&quot;text-align: left&quot;&gt;&lt;span&gt;def __init__(self, speed, max_speed)&lt;/span&gt;&lt;/div&gt;&lt;div style=&quot;text-align: left&quot;&gt;&lt;span&gt;def accelerate(self, x)&lt;/span&gt;&lt;/div&gt;&lt;div style=&quot;text-align: left&quot;&gt;&lt;span&gt;def brake(self, x)&lt;/span&gt;&lt;/div&gt;&lt;div style=&quot;text-align: left&quot;&gt;&lt;span&gt;def print_status(self)&lt;/span&gt;&lt;/div&gt;" style="rounded=0;whiteSpace=wrap;html=1;" vertex="1" parent="1">
          <mxGeometry x="260" y="30" width="320" height="130" as="geometry" />
        </mxCell>
        <mxCell id="zCscpATu42jzyudzo2XU-19" style="edgeStyle=orthogonalEdgeStyle;rounded=0;orthogonalLoop=1;jettySize=auto;html=1;exitX=1;exitY=0.5;exitDx=0;exitDy=0;entryX=1;entryY=0.5;entryDx=0;entryDy=0;" edge="1" parent="1" source="zCscpATu42jzyudzo2XU-3" target="zCscpATu42jzyudzo2XU-1">
          <mxGeometry relative="1" as="geometry" />
        </mxCell>
        <mxCell id="zCscpATu42jzyudzo2XU-3" value="class Automobile(Vehicle):&lt;br&gt;____________________________________________&lt;br&gt;&lt;div style=&quot;text-align: left&quot;&gt;&lt;br&gt;&lt;/div&gt;&lt;div style=&quot;text-align: left&quot;&gt;&lt;span&gt;def __init__(self, speed, max_speed)&lt;/span&gt;&lt;/div&gt;&lt;div style=&quot;text-align: left&quot;&gt;def set_gear(self, gear)&lt;/div&gt;&lt;div style=&quot;text-align: left&quot;&gt;def set_color(self, color)&lt;br&gt;&lt;/div&gt;&lt;div style=&quot;text-align: left&quot;&gt;def get_color(self)&lt;/div&gt;&lt;div style=&quot;text-align: left&quot;&gt;&lt;span&gt;def print_status(self)&lt;/span&gt;&lt;/div&gt;" style="rounded=0;whiteSpace=wrap;html=1;" vertex="1" parent="1">
          <mxGeometry x="460" y="280" width="320" height="130" as="geometry" />
        </mxCell>
        <mxCell id="zCscpATu42jzyudzo2XU-12" style="edgeStyle=orthogonalEdgeStyle;rounded=0;orthogonalLoop=1;jettySize=auto;html=1;exitX=0;exitY=0.5;exitDx=0;exitDy=0;entryX=0;entryY=0.5;entryDx=0;entryDy=0;" edge="1" parent="1" source="zCscpATu42jzyudzo2XU-4" target="zCscpATu42jzyudzo2XU-1">
          <mxGeometry relative="1" as="geometry" />
        </mxCell>
        <mxCell id="zCscpATu42jzyudzo2XU-4" value="class Motorcycle(Vehicle):&lt;br&gt;____________________________________________&lt;br&gt;&lt;div style=&quot;text-align: left&quot;&gt;&lt;br&gt;&lt;/div&gt;&lt;div style=&quot;text-align: left&quot;&gt;&lt;span&gt;def __init__(self, speed, max_speed)&lt;/span&gt;&lt;/div&gt;&lt;div style=&quot;text-align: left&quot;&gt;def set_tires_width(self, front, rear)&lt;br&gt;&lt;/div&gt;&lt;div style=&quot;text-align: left&quot;&gt;def print_tire_info(self)&lt;br&gt;&lt;/div&gt;" style="rounded=0;whiteSpace=wrap;html=1;" vertex="1" parent="1">
          <mxGeometry x="50" y="280" width="320" height="130" as="geometry" />
        </mxCell>
        <mxCell id="zCscpATu42jzyudzo2XU-23" style="edgeStyle=orthogonalEdgeStyle;rounded=0;orthogonalLoop=1;jettySize=auto;html=1;exitX=0.5;exitY=0;exitDx=0;exitDy=0;entryX=0.5;entryY=1;entryDx=0;entryDy=0;" edge="1" parent="1" source="zCscpATu42jzyudzo2XU-21" target="zCscpATu42jzyudzo2XU-4">
          <mxGeometry relative="1" as="geometry" />
        </mxCell>
        <mxCell id="zCscpATu42jzyudzo2XU-21" value="&lt;span style=&quot;text-align: left&quot;&gt;moto = Motorcycle(40, 120)&lt;/span&gt;&lt;br&gt;____________________________________________&lt;br&gt;&lt;br&gt;&lt;div style=&quot;text-align: left&quot;&gt;&lt;span&gt;moto.print_status()&lt;/span&gt;&lt;br&gt;&lt;/div&gt;&lt;div style=&quot;text-align: left&quot;&gt;moto.set_tires_width(90, 100)&lt;br&gt;&lt;/div&gt;&lt;div style=&quot;text-align: left&quot;&gt;moto.print_tire_info()&lt;br&gt;&lt;/div&gt;" style="rounded=0;whiteSpace=wrap;html=1;" vertex="1" parent="1">
          <mxGeometry x="50" y="480" width="320" height="130" as="geometry" />
        </mxCell>
        <mxCell id="zCscpATu42jzyudzo2XU-26" style="edgeStyle=orthogonalEdgeStyle;rounded=0;orthogonalLoop=1;jettySize=auto;html=1;exitX=0.5;exitY=0;exitDx=0;exitDy=0;entryX=0.5;entryY=1;entryDx=0;entryDy=0;" edge="1" parent="1" source="zCscpATu42jzyudzo2XU-24" target="zCscpATu42jzyudzo2XU-3">
          <mxGeometry relative="1" as="geometry" />
        </mxCell>
        <mxCell id="zCscpATu42jzyudzo2XU-24" value="auto = Automobile(0, 150)&lt;br&gt;____________________________________________&lt;br&gt;&lt;div style=&quot;text-align: left&quot;&gt;&lt;br&gt;&lt;/div&gt;&lt;div style=&quot;text-align: left&quot;&gt;auto.accelerate(40)&lt;br&gt;&lt;/div&gt;&lt;div style=&quot;text-align: left&quot;&gt;auto.set_gear(2)&lt;/div&gt;&lt;div style=&quot;text-align: left&quot;&gt;auto.print_status()&lt;br&gt;&lt;/div&gt;&lt;div style=&quot;text-align: left&quot;&gt;auto.set_color(&#39;черный&#39;)&lt;/div&gt;&lt;div style=&quot;text-align: left&quot;&gt;&lt;div&gt;color = auto.get_color()&lt;/div&gt;&lt;div&gt;print(color)&lt;/div&gt;&lt;/div&gt;" style="rounded=0;whiteSpace=wrap;html=1;" vertex="1" parent="1">
          <mxGeometry x="460" y="480" width="320" height="140" as="geometry" />
        </mxCell>
      </root>
    </mxGraphModel>
  </diagram>
</mxfile>
